<?xml version="1.0" encoding="UTF-8"?>
<svg version="1.1" xmlns="http://www.w3.org/2000/svg" width="512" height="512">
<path d="M0 0 C3.65051706 1.87678886 7.30023828 2.4420319 11.31640625 3.1640625 C37.18159684 8.28274732 58.39176346 19.21458311 77.62890625 37.3515625 C78.3559375 38.00253906 79.08296875 38.65351562 79.83203125 39.32421875 C91.69831035 50.4008354 100.0752568 64.64129109 106.62890625 79.3515625 C106.93618652 80.02558105 107.2434668 80.69959961 107.56005859 81.39404297 C113.21156125 93.91213629 113.21156125 93.91213629 111.62890625 101.3515625 C110.96890625 101.3515625 110.30890625 101.3515625 109.62890625 101.3515625 C110.61890625 105.6415625 111.60890625 109.9315625 112.62890625 114.3515625 C113.88550049 114.3609082 115.14209473 114.37025391 116.43676758 114.37988281 C121.09435616 114.41972382 125.75128008 114.48546593 130.40844727 114.55908203 C132.42496204 114.5873259 134.44158823 114.60852338 136.45825195 114.62255859 C139.35556215 114.64394096 142.25152797 114.69056616 145.1484375 114.7421875 C146.50325981 114.74403046 146.50325981 114.74403046 147.88545227 114.74591064 C154.10574359 114.89181719 154.10574359 114.89181719 156.71948242 117.1887207 C159.57012975 123.96828707 155.7712389 134.63211309 153.37890625 141.2265625 C148.90173943 151.90892543 142.44245738 161.30295424 131.9140625 166.625 C129.72113385 167.32223885 127.76497011 167.62839325 125.48608398 167.89697266 C124.21321533 168.0469873 122.94034668 168.19700195 121.62890625 168.3515625 C121.66721403 175.70686785 121.72693304 183.06168627 121.81280899 190.41659927 C121.85205232 193.83308882 121.88435229 197.24932957 121.89990234 200.66601562 C121.91816708 204.60839816 121.96821832 208.55009179 122.01953125 212.4921875 C122.02137421 214.30230316 122.02137421 214.30230316 122.02325439 216.14898682 C122.14439056 223.27696543 123.17841007 229.15079583 125.73031616 235.82089233 C126.96796217 239.30643469 127.09853449 242.03606098 127.00390625 245.7265625 C126.98457031 247.40878906 126.98457031 247.40878906 126.96484375 249.125 C126.61855981 252.45093648 125.80723376 255.23135126 124.62890625 258.3515625 C125.34175781 258.2175 126.05460937 258.0834375 126.7890625 257.9453125 C130.45955189 258.47038939 131.37500605 260.14908153 133.57250977 262.97875977 C137.63138152 268.06710839 141.39085131 271.50576575 147.94921875 272.63671875 C155.17108842 273.2420522 162.62331641 273.46759291 168.46484375 268.6640625 C170.57839467 266.61309317 172.32952893 264.42546149 174.09375 262.07421875 C177.32514458 258.60383043 178.9616441 258.59637556 183.62890625 258.3515625 C186.85449219 259.16845703 186.85449219 259.16845703 190.11328125 260.484375 C191.29535156 260.96132813 192.47742188 261.43828125 193.6953125 261.9296875 C194.91089844 262.44015625 196.12648438 262.950625 197.37890625 263.4765625 C198.62194467 263.96988831 199.86543143 264.46208604 201.109375 264.953125 C202.28628906 265.4378125 203.46320313 265.9225 204.67578125 266.421875 C205.74666992 266.86289551 206.81755859 267.30391602 207.92089844 267.75830078 C211.06635789 269.60893803 212.1718492 271.03057922 213.62890625 274.3515625 C213.85498047 276.45703125 213.85498047 276.45703125 213.68359375 278.5390625 C213.35254352 286.31147587 213.31410064 292.98703666 218.37939453 299.27783203 C223.43016006 304.5593509 227.74918617 306.92451561 235.09228516 307.43505859 C238.24808283 307.4866934 241.3777976 307.38442815 244.5234375 307.12548828 C247.57158024 307.4527819 249.20735233 308.48278112 251.62890625 310.3515625 C253.22216797 313.05957031 253.22216797 313.05957031 254.55859375 316.3046875 C255.04328125 317.48160156 255.52796875 318.65851563 256.02734375 319.87109375 C256.26936523 320.4842041 256.51138672 321.09731445 256.76074219 321.72900391 C257.49968489 323.59092588 258.27517901 325.43820446 259.05078125 327.28515625 C259.52773438 328.46722656 260.0046875 329.64929688 260.49609375 330.8671875 C260.93034668 331.94258789 261.36459961 333.01798828 261.81201172 334.12597656 C262.77949182 337.94616399 262.56982649 340.53927733 261.62890625 344.3515625 C258.90625 346.921875 258.90625 346.921875 257.27075195 348.16699219 C252.39939248 351.91000496 249.42682437 355.29128666 248.58984375 361.515625 C248.17810878 368.6765347 247.85685429 376.57399283 252.75390625 382.2890625 C254.63666819 383.94871707 254.63666819 383.94871707 256.62890625 385.3515625 C262.53166813 390.51167755 262.53166813 390.51167755 262.94873047 394.11401367 C262.58073218 397.83922384 261.55703361 400.59190406 260.07421875 404.02734375 C259.68180496 404.9432856 259.68180496 404.9432856 259.28146362 405.87773132 C258.7301072 407.15812215 258.17346799 408.43624987 257.61181641 409.7121582 C256.75112949 411.67038015 255.90962646 413.63605199 255.0703125 415.60351562 C250.91258772 425.20972177 250.91258772 425.20972177 248.62890625 426.3515625 C247.13837505 426.38610824 245.64635862 426.36593362 244.15625 426.31640625 C233.76082978 425.89300606 233.76082978 425.89300606 224.37890625 429.53515625 C222.22629347 432.04047754 220.45084334 434.60329113 218.62890625 437.3515625 C217.54609375 437.94710937 217.54609375 437.94710937 216.44140625 438.5546875 C213.73428646 441.23847005 214.20704377 443.78793541 214.16601562 447.48046875 C214.18287085 449.30342654 214.20367024 451.12635235 214.22851562 452.94921875 C214.17201471 457.44935013 214.13904438 459.66216255 211.39453125 463.37109375 C208.81600747 465.217579 206.84566636 466.30501859 203.81640625 467.1640625 C203.02621094 467.39738281 202.23601562 467.63070313 201.421875 467.87109375 C200.53435547 468.10892578 200.53435547 468.10892578 199.62890625 468.3515625 C199.66371094 469.22039062 199.69851563 470.08921875 199.734375 470.984375 C200.0119685 482.80192705 200.0119685 482.80192705 196.62890625 487.3515625 C191.61932127 492.36114748 186.16427689 493.44343217 179.32377148 493.57929516 C177.21551221 493.57926401 175.10723533 493.56820366 172.99906921 493.54838562 C171.2565227 493.54432683 171.2565227 493.54432683 169.47877324 493.54018605 C166.27586373 493.53103628 163.07314412 493.51302796 159.87029864 493.49149491 C156.41571026 493.47063067 152.96109187 493.46170586 149.50645733 493.45192242 C144.34685628 493.4364554 139.18728651 493.41772928 134.02771196 493.39508245 C124.34670234 493.35305382 114.66586569 493.33923206 104.98477173 493.33926392 C104.25053626 493.33923459 103.51630079 493.33920527 102.75981576 493.33917505 C99.76140275 493.33908837 96.76298977 493.33910364 93.76457677 493.33930967 C85.16293852 493.33973067 76.56130626 493.33413157 67.95967102 493.3273468 C67.16056873 493.32672235 66.36146644 493.3260979 65.53814893 493.32545453 C43.01493669 493.30728756 20.49174815 493.26830668 -2.03142775 493.22470688 C-6.55814226 493.21595213 -11.08485713 493.20739972 -15.61157227 493.19897461 C-16.51178666 493.19729555 -17.41200106 493.19561648 -18.33949468 493.19388654 C-33.09337861 493.16689802 -47.84722356 493.15809519 -62.60112961 493.15552107 C-77.86849855 493.15246729 -93.1357557 493.13063405 -108.40307409 493.09103793 C-117.76749318 493.067335 -127.13168887 493.05821112 -136.49613384 493.06804939 C-142.868027 493.07334358 -149.23971719 493.0604398 -155.6115525 493.0328996 C-159.28431025 493.01756528 -162.95661359 493.01045557 -166.62938499 493.02496529 C-170.60147528 493.04045107 -174.572803 493.01762992 -178.54484558 492.99079895 C-180.29510088 493.00680884 -180.29510088 493.00680884 -182.08071488 493.02314216 C-183.13875551 493.00970352 -184.19679614 492.99626488 -185.28689861 492.98241901 C-186.20297065 492.98127985 -187.1190427 492.98014069 -188.0628745 492.97896701 C-190.37109375 492.3515625 -190.37109375 492.3515625 -192.19030553 489.95813769 C-193.55301098 486.9499825 -193.52096475 485.75812872 -192.78125 482.58398438 C-192.57693359 481.66532593 -192.37261719 480.74666748 -192.16210938 479.8001709 C-191.80149414 478.32514099 -191.80149414 478.32514099 -191.43359375 476.8203125 C-191.0787793 475.27905701 -191.0787793 475.27905701 -190.71679688 473.70666504 C-190.21129199 471.52914996 -189.69622429 469.35383611 -189.17236328 467.18066406 C-188.38179858 463.89603874 -187.62197926 460.60550768 -186.8671875 457.3125 C-181.26414333 433.2374955 -172.90311055 409.92555155 -151.0390625 395.92578125 C-150.15863281 395.40628906 -149.27820313 394.88679688 -148.37109375 394.3515625 C-147.43910156 393.78050781 -146.50710937 393.20945312 -145.546875 392.62109375 C-133.97874666 386.17538386 -121.13562724 383.48561869 -108.37109375 380.3515625 C-107.32614746 380.09036621 -106.28120117 379.82916992 -105.20458984 379.56005859 C-102.30387815 378.83569587 -99.40104086 378.12123339 -96.49609375 377.4140625 C-95.62911865 377.20249512 -94.76214355 376.99092773 -93.86889648 376.77294922 C-92.66728882 376.48895264 -92.66728882 376.48895264 -91.44140625 376.19921875 C-90.74805176 376.03429932 -90.05469727 375.86937988 -89.34033203 375.69946289 C-87.37109375 375.3515625 -87.37109375 375.3515625 -83.37109375 375.3515625 C-83.16484375 374.5265625 -82.95859375 373.7015625 -82.74609375 372.8515625 C-81.43370957 369.51094823 -80.67567163 368.59925773 -78.30859375 366.1640625 C-73.13000632 359.77587801 -74.38682882 350.15615626 -74.37109375 342.3515625 C-74.95737549 342.30475342 -75.54365723 342.25794434 -76.14770508 342.2097168 C-104.27224583 339.71153264 -129.68363354 331.11856599 -149.37109375 310.3515625 C-158.68337991 298.84643031 -158.68337991 298.84643031 -158.37109375 291.3515625 C-158.04109375 290.6915625 -157.71109375 290.0315625 -157.37109375 289.3515625 C-157.97687628 287.33228739 -158.64029109 285.32902853 -159.37109375 283.3515625 C-160.64984375 283.2896875 -161.92859375 283.2278125 -163.24609375 283.1640625 C-171.72019791 282.20472995 -179.69915882 277.69078389 -185.37109375 271.3515625 C-194.46312852 259.19734554 -196.18471987 249.15329928 -195.37109375 234.3515625 C-195.04109375 233.3615625 -194.71109375 232.3715625 -194.37109375 231.3515625 C-195.13421875 231.4546875 -195.89734375 231.5578125 -196.68359375 231.6640625 C-199.37109375 231.3515625 -199.37109375 231.3515625 -200.99609375 229.3515625 C-205.37109375 219.80610795 -205.37109375 219.80610795 -205.37109375 215.3515625 C-206.23734375 215.8671875 -207.10359375 216.3828125 -207.99609375 216.9140625 C-211.77876013 218.52519818 -213.47329054 218.43932153 -217.37109375 217.3515625 C-218.37109375 216.3515625 -218.37109375 216.3515625 -218.80078125 213.5234375 C-218.71340539 207.62406047 -215.26278436 202.63478684 -212.49609375 197.6015625 C-211.94050781 196.56128906 -211.38492188 195.52101562 -210.8125 194.44921875 C-208.77544947 190.65490536 -206.76095742 186.936358 -204.37109375 183.3515625 C-203.99049566 180.56368721 -203.99049566 180.56368721 -203.9140625 177.375 C-203.82753418 175.55137939 -203.82753418 175.55137939 -203.73925781 173.69091797 C-203.67963867 172.38268066 -203.62001953 171.07444336 -203.55859375 169.7265625 C-201.01584039 122.84648774 -184.14260695 74.58340408 -149.0234375 42.22265625 C-139.39328787 33.59453499 -129.20013923 25.87188898 -117.34375 20.6015625 C-116.29630615 20.13242432 -115.2488623 19.66328613 -114.16967773 19.17993164 C-112.08636681 18.26689046 -109.98808406 17.38713608 -107.87524414 16.54467773 C-105.08914943 15.3357062 -102.73681138 14.25938053 -100.37109375 12.3515625 C-99.5175941 9.88523912 -99.37835199 8.02029104 -99.50927734 5.42211914 C-99.37109375 3.3515625 -99.37109375 3.3515625 -98.1628418 1.67358398 C-96.02740497 0.09797554 -94.24761788 -0.48106857 -91.6796875 -1.1484375 C-90.27529419 -1.51739136 -90.27529419 -1.51739136 -88.8425293 -1.89379883 C-87.84133057 -2.14282959 -86.84013184 -2.39186035 -85.80859375 -2.6484375 C-84.78096924 -2.90971436 -83.75334473 -3.17099121 -82.69458008 -3.44018555 C-55.77692446 -10.12320408 -23.99190769 -16.67971177 0 0 Z M93.62890625 285.3515625 C93.40976562 285.90585937 93.190625 286.46015625 92.96484375 287.03125 C91.98215206 289.2762611 91.00122509 291.31849755 89.62890625 293.3515625 C88.68015625 293.6403125 87.73140625 293.9290625 86.75390625 294.2265625 C81.70846549 296.04292118 79.86273171 300.66211331 77.62890625 305.3515625 C77.62890625 306.0115625 77.62890625 306.6715625 77.62890625 307.3515625 C81.84593567 306.87235461 83.47084456 304.6170806 86.12890625 301.4765625 C90.29820943 296.5790591 90.29820943 296.5790591 92.89453125 294.79296875 C94.82492808 293.49915969 94.82492808 293.49915969 95.01953125 291.30859375 C94.973125 290.60089844 94.92671875 289.89320313 94.87890625 289.1640625 C94.79640625 287.9059375 94.71390625 286.6478125 94.62890625 285.3515625 C94.29890625 285.3515625 93.96890625 285.3515625 93.62890625 285.3515625 Z M39.00390625 341.3515625 C37.77800781 341.9084375 37.77800781 341.9084375 36.52734375 342.4765625 C35.90085937 342.7653125 35.274375 343.0540625 34.62890625 343.3515625 C34.0576797 353.95098841 33.62895531 364.06696689 39.62890625 373.3515625 C42.17064499 375.31281545 44.51017611 375.78793657 47.62890625 376.3515625 C49.46665109 376.89947787 51.30003931 377.46220631 53.12890625 378.0390625 C54.62809448 378.47933615 56.12780857 378.9178437 57.62890625 379.3515625 C61.28920705 375.6912617 60.28910066 370.04849228 60.35058594 365.1015625 C60.20176342 359.26604277 59.46384522 355.80542043 55.37890625 351.3515625 C53.83180106 349.97635788 52.24945081 348.63941248 50.62890625 347.3515625 C46.175298 343.17630477 46.175298 343.17630477 45.62890625 339.3515625 C43.02363737 339.3515625 41.36853896 340.27058755 39.00390625 341.3515625 Z " fill="#041B3F" transform="translate(228.37109375,14.6484375)"/>
<path d="M0 0 C2.3515625 1.99609375 2.3515625 1.99609375 4.625 4.4375 C10.34958398 10.52353382 13.71787123 11.41624961 21.96850586 11.78491211 C34.33136159 12.6704148 34.33136159 12.6704148 45.375 8.28515625 C47.49033065 6.20318454 49.13747044 3.97072585 50.80859375 1.52734375 C51.53175781 0.69332031 52.25492187 -0.14070313 53 -1 C57.82491722 -1.10108067 62.39149959 1.17121544 66.8125 3 C67.49248047 3.27328125 68.17246094 3.5465625 68.87304688 3.828125 C73.85446429 5.85446429 73.85446429 5.85446429 75 7 C75.09611476 8.35678282 75.13196159 9.71796964 75.140625 11.078125 C75.15996094 11.90957031 75.17929687 12.74101562 75.19921875 13.59765625 C75.23276943 15.35003407 75.25127852 17.10277175 75.25390625 18.85546875 C75.37964961 23.15059723 75.45899713 25.3206234 78.19921875 28.76171875 C79.12347656 29.50035156 80.04773438 30.23898437 81 31 C92 42 92 42 93.73046875 44.29296875 C97.3836139 47.04068722 101.29673974 46.67764274 105.75 46.75 C107.08224609 46.79447266 107.08224609 46.79447266 108.44140625 46.83984375 C110.62769449 46.91036918 112.81292768 46.96314637 115 47 C123.81488315 64.31619338 123.81488315 64.31619338 123 69 C121.60416484 70.11334471 120.19733128 71.21672912 118.72924805 72.23291016 C114.25132887 75.51406229 111.50415807 78.71627781 110.28662109 84.23144531 C109.86822576 88.05166542 109.71630537 91.78236308 109.6875 95.625 C109.65849609 96.87603516 109.62949219 98.12707031 109.59960938 99.41601562 C109.82639923 107.80724008 111.74773376 112.18000006 117.78442383 118.02490234 C119.12127072 119.21664795 120.45829373 120.40819609 121.7956543 121.59936523 C123 123 123 123 122.875 125.69921875 C121.85536757 129.54560001 120.51915617 133.14001161 119 136.8125 C118.72671875 137.49248047 118.4534375 138.17246094 118.171875 138.87304688 C116.14553571 143.85446429 116.14553571 143.85446429 115 145 C113.66023906 144.98705273 112.32093355 144.91769744 110.984375 144.82421875 C100.22878082 144.25664496 100.22878082 144.25664496 90.9921875 149.00390625 C88.19745426 151.91735727 85.75517287 155.0649227 83.38818359 158.33129883 C81.95696155 160.05173546 80.55307714 161.06989914 78.703125 162.30859375 C75.24748603 165.74925163 75.25472763 167.82088631 75.1171875 172.54882812 C75.11976563 173.46083984 75.12234375 174.37285156 75.125 175.3125 C75.104375 176.24384766 75.08375 177.17519531 75.0625 178.13476562 C75.01553982 180.4240742 74.99554473 182.71030978 75 185 C73.68 185.33 72.36 185.66 71 186 C70.85304688 185.16597656 70.70609375 184.33195313 70.5546875 183.47265625 C68.61461857 173.73886213 65.95399317 166.52551607 57.6875 160.625 C50.63381893 156.03003062 43.36363174 154.54656008 35.08203125 154.953125 C33.3978157 154.99595745 31.71356918 155.03758569 30.02929688 155.078125 C27.42668774 155.15822782 24.82572534 155.24942113 22.22436523 155.36328125 C6.20775959 156.02056002 -4.30136561 152.82675437 -16.76171875 142.140625 C-27.20860788 132.14953383 -34.95279439 118.62347838 -36 104 C-36.04769531 103.35192383 -36.09539062 102.70384766 -36.14453125 102.03613281 C-37.26583224 84.37564215 -32.86413863 68.03383168 -21.21362305 54.32348633 C-10.43112305 42.21454531 4.86015798 33.90508137 21.17578125 32.78125 C38.29052609 32.32434914 54.57468783 37.10856535 67.5625 48.5 C69.06337112 49.97828276 70.54457964 51.47694859 72 53 C72.63164062 53.61230469 73.26328125 54.22460938 73.9140625 54.85546875 C84.13270844 65.41173515 89.05173254 80.18138016 89.3125 94.625 C88.86825348 112.83910748 82.1300932 129.62035847 68.89453125 142.34375 C67 144 67 144 64.78515625 145.55859375 C62.7195461 146.89278347 62.7195461 146.89278347 62.625 149.5625 C62.78103864 152.17528109 62.78103864 152.17528109 65 154 C71.60330232 153.62266844 75.65467517 148.49790876 80 144 C91.95706841 130.0395427 99.04465885 111.37047834 98.25390625 92.8515625 C96.71021994 75.51477775 91.42859494 60.38345093 79.3203125 47.59375 C78 46 78 46 78 44 C77.4225 43.73703125 76.845 43.4740625 76.25 43.203125 C73.88154056 41.9366571 72.0534706 40.4767821 70 38.75 C54.85640364 26.84792508 35.94065775 22.54020334 17 24 C-2.89405596 26.66229951 -19.63409158 37.38240357 -32 53 C-43.41998328 69.3287957 -47.06322614 89.0443845 -44.53125 108.625 C-40.8417157 128.30251628 -31.17349229 143.44063924 -15 155 C-12.37229652 156.76425589 -9.73376975 158.4010026 -7 160 C-8.13340078 162.3871627 -9.16788523 164.20146227 -10.875 166.25 C-15.55232326 172.30300658 -17.68363931 178.5175287 -19 186 C-20.32 185.67 -21.64 185.34 -23 185 C-22.9779248 184.410979 -22.95584961 183.82195801 -22.93310547 183.21508789 C-22.27427511 171.52997664 -22.27427511 171.52997664 -26.046875 160.8828125 C-28.5942282 158.71370266 -31.23163681 156.87415738 -34 155 C-35.98162147 152.91389304 -37.79460052 150.74884937 -39.625 148.53125 C-41.36529682 146.59319218 -42.4725556 146.05249476 -45.06298828 145.79467773 C-46.30411377 145.73969116 -46.30411377 145.73969116 -47.5703125 145.68359375 C-48.46621094 145.64169922 -49.36210937 145.59980469 -50.28515625 145.55664062 C-51.22230469 145.51732422 -52.15945313 145.47800781 -53.125 145.4375 C-54.54232422 145.37272461 -54.54232422 145.37272461 -55.98828125 145.30664062 C-58.32537092 145.20040928 -60.6625683 145.09836824 -63 145 C-64.37283042 141.92464542 -65.71989793 138.83865719 -67.0625 135.75 C-67.45244141 134.87730469 -67.84238281 134.00460937 -68.24414062 133.10546875 C-68.79038086 131.83896484 -68.79038086 131.83896484 -69.34765625 130.546875 C-69.68804932 129.77182617 -70.02844238 128.99677734 -70.37915039 128.19824219 C-71.09663845 125.65783225 -71.00588567 124.42573072 -70 122 C-68.17016146 120.68263206 -66.33617986 119.37101477 -64.5 118.0625 C-58.86368918 113.2020193 -57.98260773 107.67121554 -57.31176758 100.46630859 C-56.38638736 87.34563937 -56.38638736 87.34563937 -61.79052734 75.88842773 C-64.04870316 73.73566244 -66.51485727 71.88134509 -69 70 C-70.26196289 68.15942383 -70.26196289 68.15942383 -71 66 C-70.49267578 63.80175781 -70.49267578 63.80175781 -69.4453125 61.453125 C-69.07792969 60.60878906 -68.71054687 59.76445312 -68.33203125 58.89453125 C-67.93371094 58.02183594 -67.53539062 57.14914062 -67.125 56.25 C-66.73441406 55.36183594 -66.34382813 54.47367187 -65.94140625 53.55859375 C-64.9747015 51.36582443 -63.993965 49.18051467 -63 47 C-61.06060547 47.13535156 -61.06060547 47.13535156 -59.08203125 47.2734375 C-48.26924101 47.78071694 -48.26924101 47.78071694 -38.98828125 42.9921875 C-36.19494788 40.08008003 -33.75403885 36.93351238 -31.38818359 33.66870117 C-29.95696155 31.94826454 -28.55307714 30.93010086 -26.703125 29.69140625 C-23.24748603 26.25074837 -23.25472763 24.17911369 -23.1171875 19.45117188 C-23.11976563 18.53916016 -23.12234375 17.62714844 -23.125 16.6875 C-23.104375 15.75615234 -23.08375 14.82480469 -23.0625 13.86523438 C-23.01553982 11.5759258 -22.99554473 9.28969022 -23 7 C-20.93824636 6.040062 -18.87556531 5.08211576 -16.8125 4.125 C-15.66394531 3.59132813 -14.51539063 3.05765625 -13.33203125 2.5078125 C-12.23246094 2.01023437 -11.13289063 1.51265625 -10 1 C-8.70642578 0.37738281 -8.70642578 0.37738281 -7.38671875 -0.2578125 C-4.39792974 -1.18722316 -2.93996716 -1.07118677 0 0 Z " fill="#C9C9C9" transform="translate(356,286)"/>
<path d="M0 0 C65.34 0 130.68 0 198 0 C198 12.42285174 198 12.42285174 197.5637207 18.42407227 C197.51632751 19.082612 197.46893433 19.74115173 197.42010498 20.41964722 C196.97907851 26.40902896 196.46826951 32.39291635 195.93549824 38.37477207 C195.58016686 42.37140131 195.24840207 46.36698431 194.97143555 50.36987305 C194.70040718 54.27871161 194.36996816 58.17844462 193.99867821 62.07899284 C193.86847243 63.55109303 193.75861969 65.02515929 193.6708622 66.50039864 C193.28673279 72.75427916 192.86813693 78.59208492 188.06504822 83.08726501 C184.88409428 85.68792556 181.49278714 87.84316057 178 90 C176.66032996 90.99914136 175.33238784 92.01463054 174.02734375 93.05859375 C173.00769531 93.84363281 171.98804688 94.62867188 170.9375 95.4375 C169.37322266 96.64212891 169.37322266 96.64212891 167.77734375 97.87109375 C165.52837485 99.59498693 163.27146204 101.30593598 161 103 C160.13955078 102.56494141 160.13955078 102.56494141 159.26171875 102.12109375 C152.67806001 98.85769123 146.01433286 96.18886983 139 94 C141.92379915 89.43887332 145.14237114 85.19547274 148.51171875 80.953125 C151.33021274 77.25431399 151.39300927 74.63750937 151 70 C149.77570579 67.00990148 149.77570579 67.00990148 147 65 C143.70178297 64.00743312 140.41299399 63.43639427 137 63 C137.14194764 60.93722893 137.28872216 58.87478969 137.4375 56.8125 C137.55931641 55.08966797 137.55931641 55.08966797 137.68359375 53.33203125 C137.95403812 50.48401829 138.37521747 47.78789518 139 45 C140.051875 45.04125 141.10375 45.0825 142.1875 45.125 C145.81329224 45.00612157 147.91357829 44.85185303 151 43 C152.32481546 40.60470331 152.32481546 40.60470331 153 38 C153.33 37.01 153.66 36.02 154 35 C154.51517313 29.62024121 154.6689224 25.31477851 152.1875 20.4375 C149.17695823 17.08289632 147.65642885 16.07411293 143.125 15.5625 C139.64635631 15.64562935 139.04545206 15.96442882 136.125 18.25 C132.34918988 23.13634251 131.47424324 27.37965069 130.7109375 33.45703125 C130.54871201 34.68881355 130.54871201 34.68881355 130.38320923 35.94548035 C130.15630305 37.68073307 129.9329437 39.41645279 129.71289062 41.15258789 C129.37738569 43.79371962 129.02945628 46.43298922 128.6796875 49.07226562 C128.46019427 50.76292451 128.24142093 52.45367704 128.0234375 54.14453125 C127.92034271 54.92705765 127.81724792 55.70958405 127.71102905 56.51582336 C127.14534707 61.03017726 126.7196073 65.44235069 127 70 C129.77042109 72.77042109 131.76533805 72.39796106 135.625 72.625 C136.81351563 72.69976562 138.00203125 72.77453125 139.2265625 72.8515625 C140.59941406 72.92503906 140.59941406 72.92503906 142 73 C140.26788622 77.12650635 137.47720437 80.29863086 134.625 83.6875 C134.14289063 84.28111328 133.66078125 84.87472656 133.1640625 85.48632812 C128.97121949 90.48241959 128.97121949 90.48241959 125 91 C123.02392578 90.71801758 123.02392578 90.71801758 120.9453125 90.14453125 C119.78660645 89.83165161 119.78660645 89.83165161 118.60449219 89.51245117 C117.37714355 89.16597534 117.37714355 89.16597534 116.125 88.8125 C115.27583008 88.58344971 114.42666016 88.35439941 113.55175781 88.1184082 C109.72957928 87.07930294 105.93069883 85.99936149 102.1640625 84.7734375 C91.32846165 81.32687338 79.89533584 79.6536348 69.26953125 84.67578125 C61.84177449 89.00970473 53.92633918 95.14732164 50 103 C45.05343316 101.501494 40.60668218 99.44183999 36.01171875 97.12109375 C34.8960125 96.56289696 34.8960125 96.56289696 33.75776672 95.99342346 C32.19620108 95.21113745 30.63560206 94.42691918 29.07592773 93.64086914 C26.6798774 92.43365948 24.28064264 91.23297226 21.88085938 90.03320312 C20.36178906 89.27121219 18.84290221 88.5088554 17.32421875 87.74609375 C16.60449387 87.3856749 15.88476898 87.02525604 15.14323425 86.65391541 C10.11609488 84.11609488 10.11609488 84.11609488 9 83 C8.74623236 81.46929192 8.55229852 79.9286004 8.38330078 78.38623047 C8.27293488 77.39944305 8.16256897 76.41265564 8.04885864 75.39596558 C7.93218842 74.31396881 7.81551819 73.23197205 7.6953125 72.1171875 C7.5706662 70.99676056 7.4460199 69.87633362 7.31759644 68.72195435 C6.91594129 65.10674516 6.52008658 61.49093247 6.125 57.875 C5.60964656 53.18457419 5.09120297 48.49450154 4.5703125 43.8046875 C4.44255432 42.64894226 4.31479614 41.49319702 4.1831665 40.3024292 C3.21440189 31.64279472 2.12216856 23.0036578 0.90774536 14.37496948 C0.78849701 13.50373444 0.66924866 12.63249939 0.54638672 11.73486328 C0.44059296 10.98536407 0.33479919 10.23586487 0.22579956 9.46365356 C-0.06219757 6.32137479 0 3.15544898 0 0 Z " fill="#F6CEB2" transform="translate(124,205)"/>
<path d="M0 0 C23.09046297 12.72389595 39.19652818 35.48146653 46.72802734 60.40966797 C52.19791215 79.5524131 52.19791215 79.5524131 52.0625 89.4375 C52.05347656 90.30246094 52.04445312 91.16742188 52.03515625 92.05859375 C52.01775391 93.01958984 52.01775391 93.01958984 52 94 C51.11183594 94.24878906 50.22367188 94.49757813 49.30859375 94.75390625 C6.41089792 107.03030258 -35.32089706 122.61951803 -76.1875 140.5 C-77.18966553 140.93828125 -78.19183105 141.3765625 -79.22436523 141.828125 C-83.98409604 143.85472122 -83.98409604 143.85472122 -88 147 C-87.67958603 149.60280568 -87.67958603 149.60280568 -87 152 C-82.66470401 153.28374792 -80.45179686 152.69279182 -76.390625 150.81640625 C-75.26237305 150.30803223 -74.13412109 149.7996582 -72.97167969 149.27587891 C-72.36723022 148.99721985 -71.76278076 148.71856079 -71.14001465 148.43145752 C-67.84840725 146.91810046 -64.53422847 145.45625318 -61.21875 143.99609375 C-60.50257507 143.68031372 -59.78640015 143.36453369 -59.04852295 143.03918457 C-50.29942032 139.21188203 -41.42646241 135.69718877 -32.53503418 132.21603394 C-30.67676072 131.48805745 -28.81974238 130.75686898 -26.96398926 130.02249146 C-24.34892772 128.98851089 -21.72996459 127.96518787 -19.109375 126.9453125 C-18.31801147 126.63139053 -17.52664795 126.31746857 -16.71130371 125.99403381 C-14.82931453 125.26998567 -12.91665518 124.6265476 -11 124 C-10.34 124.33 -9.68 124.66 -9 125 C-16.84060426 132.24661909 -24.71631557 137.29912436 -34.37255859 141.77001953 C-37.42671534 143.19975766 -40.45743692 144.67382983 -43.48828125 146.15234375 C-57.03456896 152.75381592 -70.64789286 159.1922065 -84.33447266 165.49755859 C-91.48299368 168.79995946 -98.57234295 172.18967865 -105.56176758 175.81787109 C-109.80080163 178 -109.80080163 178 -112 178 C-111.05938428 175.4053547 -110.1425653 173.19853258 -108.52734375 170.94921875 C-103.33969044 163.5692402 -103.47153555 156.55296852 -103.32080078 147.88232422 C-102.3878873 103.05481022 -85.83150768 59.83150768 -54 28 C-48.47767967 28.19781446 -44.4669871 30.70945286 -39.875 33.5 C-39.12653809 33.94851318 -38.37807617 34.39702637 -37.60693359 34.85913086 C-29.9372943 39.52714252 -22.79432609 44.71882074 -15.99609375 50.59765625 C-15.02800781 51.43167969 -14.05992188 52.26570313 -13.0625 53.125 C-12.20785156 53.89070313 -11.35320312 54.65640625 -10.47265625 55.4453125 C-8.08573224 57.29527387 -8.08573224 57.29527387 -5.18359375 56.7421875 C-4.46300781 56.49726562 -3.74242187 56.25234375 -3 56 C-2.19078519 53.70442321 -2.19078519 53.70442321 -2 51 C-10.48239159 37.44378522 -30.34423766 28.27817212 -44 21 C-40.25309504 16.97368912 -36.35828378 14.01203002 -31.6875 11.125 C-30.99470947 10.69662842 -30.30191895 10.26825684 -29.58813477 9.8269043 C-24.67089936 6.85927265 -19.66303826 4.19542936 -14.4375 1.8125 C-13.47493286 1.35738037 -13.47493286 1.35738037 -12.49291992 0.89306641 C-7.9280014 -1.08484664 -4.78557563 -1.29177839 0 0 Z " fill="#FDCF13" transform="translate(139,38)"/>
<path d="M0 0 C3.03602326 3.03602326 2.73951051 6.74196124 3.1484375 10.84375 C3.2457869 11.74854599 3.34313629 12.65334198 3.44343567 13.58555603 C3.65258249 15.53839273 3.8577573 17.49165801 4.05941772 19.44528198 C4.37563965 22.50619156 4.70240738 25.56579821 5.0324707 28.62524414 C5.47826753 32.76042781 5.92090591 36.89592684 6.36083984 41.03173828 C7.18759864 48.77861294 8.04462697 56.52176115 8.93804932 64.26123047 C9.18262205 66.3949436 9.41929771 68.529438 9.65576172 70.6640625 C9.8783667 72.59185547 9.8783667 72.59185547 10.10546875 74.55859375 C10.23074951 75.66517334 10.35603027 76.77175293 10.48510742 77.91186523 C11.32467969 83.71212411 11.32467969 83.71212411 14.52685547 88.37695312 C15.13416504 88.67537109 15.74147461 88.97378906 16.3671875 89.28125 C17.07464111 89.64178467 17.78209473 90.00231934 18.51098633 90.3737793 C19.29111084 90.74543213 20.07123535 91.11708496 20.875 91.5 C21.69057373 91.90581299 22.50614746 92.31162598 23.34643555 92.72973633 C25.18332517 93.64286538 27.0240052 94.54839473 28.86767578 95.44775391 C31.72955019 96.86597662 34.56604387 98.32592866 37.39532471 99.80795288 C39.90496524 101.12145487 42.42183268 102.4207264 44.9397583 103.71826172 C46.18322025 104.36181599 47.42426579 105.01006191 48.66278076 105.66308594 C50.41949261 106.58642139 52.18811228 107.4869907 53.95703125 108.38671875 C54.97772705 108.91483154 55.99842285 109.44294434 57.05004883 109.98706055 C60.52088148 111.17885767 62.50007446 111.01424363 66 110 C67.69081423 108.00818124 67.69081423 108.00818124 68.8125 105.4375 C73.40461267 97.1001318 79.6199043 92.04071078 88.4453125 88.59375 C91.67366629 87.84342924 94.6979041 87.90311699 98 88 C97.95359375 89.09957031 97.9071875 90.19914062 97.859375 91.33203125 C97.54661913 101.90941097 98.26111834 110.17174329 104.125 119.3125 C112.56599013 127.20299078 120.37860562 129.38357354 131.7109375 129.28125 C136.45650005 128.87545368 139.94750747 127.42354945 144 125 C144.63679687 124.63777344 145.27359375 124.27554688 145.9296875 123.90234375 C153.28539439 119.24583402 156.29270623 111.97939217 159 104 C161.74561932 105.52534407 163.86886256 106.85656843 166 109.1875 C167.83440842 111.15443246 167.83440842 111.15443246 170.171875 111.46484375 C174.48619296 110.75572243 176.99614411 108.17283084 180.25 105.375 C181.57714832 104.27069314 182.90656825 103.16911038 184.23828125 102.0703125 C184.87975098 101.53954102 185.5212207 101.00876953 186.18212891 100.46191406 C189.60886378 97.70616757 193.2625907 95.30929355 197 93 C197.12375 94.11375 197.2475 95.2275 197.375 96.375 C197.6465813 100.03103677 197.6465813 100.03103677 200 102 C198.85605098 103.98025639 197.70978896 105.95917678 196.5625 107.9375 C195.92441406 109.03964844 195.28632813 110.14179688 194.62890625 111.27734375 C193 114 193 114 192 115 C190.58672053 115.15620555 189.1664541 115.25056173 187.74609375 115.31640625 C186.89208984 115.35830078 186.03808594 115.40019531 185.15820312 115.44335938 C184.26037109 115.48267578 183.36253906 115.52199219 182.4375 115.5625 C181.53580078 115.60568359 180.63410156 115.64886719 179.70507812 115.69335938 C177.47021515 115.79978142 175.23523692 115.90179988 173 116 C172.81824219 116.58007812 172.63648438 117.16015625 172.44921875 117.7578125 C172.19785156 118.53898437 171.94648438 119.32015625 171.6875 120.125 C171.44386719 120.89070313 171.20023438 121.65640625 170.94921875 122.4453125 C168.62680656 128.69575519 166.97920831 131.61233438 160.80859375 134.5390625 C160.19471298 134.83027985 159.58083221 135.12149719 158.948349 135.42153931 C152.50882439 138.38658859 145.84569469 140.64261708 139.08374023 142.74560547 C137.03509211 143.38353455 134.99307106 144.04004016 132.95117188 144.69921875 C117.90089282 149.48561799 103.41022639 150.23020424 87.85546875 147.76171875 C87.00388184 147.63006821 86.15229492 147.49841766 85.27490234 147.36277771 C74.63723135 145.68021649 64.07020311 143.61977059 53.5 141.5625 C51.49616333 141.17607133 49.49225717 140.79000276 47.48828125 140.40429688 C42.60601461 139.46307491 37.72581686 138.51162954 32.84643555 137.55557251 C30.00082403 137.00016084 27.15383328 136.45227065 24.30664062 135.9050293 C22.51687404 135.55675034 20.72715808 135.20821107 18.9375 134.859375 C18.12865356 134.70557877 17.31980713 134.55178253 16.4864502 134.39332581 C9.90799365 133.09955978 3.97960555 131.06712526 -2 128 C-2.9796875 127.50886719 -3.959375 127.01773438 -4.96875 126.51171875 C-16.95080147 120.04202859 -26.97135553 110.72129829 -34 99 C-34 98.34 -34 97.68 -34 97 C-35.093125 97.103125 -36.18625 97.20625 -37.3125 97.3125 C-38.529375 97.209375 -39.74625 97.10625 -41 97 C-42.95578117 94.60259082 -44 93.12413392 -44 90 C-42.38931641 89.81824219 -42.38931641 89.81824219 -40.74609375 89.6328125 C-39.30986025 89.46384385 -37.87366428 89.29455596 -36.4375 89.125 C-35.73302734 89.04636719 -35.02855469 88.96773438 -34.30273438 88.88671875 C-29.6868291 88.33366097 -25.43823397 87.38804164 -21 86 C-20.95745644 84.00045254 -20.95919217 81.99958364 -21 80 C-22.88059033 78.11940967 -25.49890038 78.87638782 -27.9921875 78.8671875 C-30.20774018 78.92873469 -30.20774018 78.92873469 -33 80 C-42.27978066 80.84471345 -49.15900323 80.14237456 -57 75 C-57.9075 74.443125 -58.815 73.88625 -59.75 73.3125 C-66.22806996 66.65448366 -69.91452802 58.44010891 -70.375 49.1875 C-70.12932766 40.17951405 -66.33114474 33.43148931 -60.22265625 26.98046875 C-52.9250446 20.47802744 -45.85832443 18.68004289 -36.3046875 18.78515625 C-28.16626799 19.31424972 -20.54860585 20.72131443 -15 27 C-13.625 30.3125 -13.625 30.3125 -13 33 C-10.58354218 33.16687448 -10.58354218 33.16687448 -8 33 C-7.34 32.34 -6.68 31.68 -6 31 C-6 25.23462899 -7.07937247 21.76956413 -11.03515625 17.54296875 C-14.59819431 14.74495675 -18.71987741 13.36185719 -23 12 C-21.60087097 9.20174195 -19.92861025 8.88246628 -17.08984375 7.6171875 C-15.60581055 6.95009766 -15.60581055 6.95009766 -14.09179688 6.26953125 C-12.53041992 5.57923828 -12.53041992 5.57923828 -10.9375 4.875 C-9.89271484 4.40707031 -8.84792969 3.93914062 -7.77148438 3.45703125 C-5.18349237 2.29893437 -2.59297475 1.1468866 0 0 Z " fill="#744D34" transform="translate(113,208)"/>
<path d="M0 0 C4.455 0.99 4.455 0.99 9 2 C8.484375 2.70125 7.96875 3.4025 7.4375 4.125 C5.63592399 7.72815201 6.11612667 9.12316505 7 13 C7.68388806 15.01408791 8.42540459 17.00927024 9.21484375 18.984375 C9.65376953 20.08394531 10.09269531 21.18351562 10.54492188 22.31640625 C11.00447266 23.44949219 11.46402344 24.58257812 11.9375 25.75 C12.62102539 27.47283203 12.62102539 27.47283203 13.31835938 29.23046875 C15.43379199 35.0718719 15.43379199 35.0718719 19 40 C21.36509361 40.30059943 23.74441881 40.49515012 26.125 40.625 C27.40632812 40.69976562 28.68765625 40.77453125 30.0078125 40.8515625 C30.99523437 40.90054688 31.98265625 40.94953125 33 41 C32.11808122 45.40959389 31.1161402 49.71004059 29.75390625 53.99609375 C29.41588989 55.07515991 29.41588989 55.07515991 29.07104492 56.17602539 C28.61948619 57.60260887 28.15550648 59.02534264 27.67700195 60.44311523 C26.35500109 64.65109782 25.88183711 68.35664518 25.93603516 72.77978516 C25.94527008 73.76032867 25.954505 74.74087219 25.96401978 75.75112915 C25.97589325 76.49325653 25.98776672 77.23538391 26 78 C24.72583395 78.00634791 24.72583395 78.00634791 23.42592716 78.01282406 C2.78786159 78.11598358 -17.85016892 78.22459896 -38.48817348 78.33933926 C-48.46842192 78.39469351 -58.44867393 78.44817906 -68.42895508 78.49731445 C-77.12448387 78.54012938 -85.8199861 78.58640046 -94.5154739 78.63687855 C-99.12262172 78.66350125 -103.7297642 78.68835478 -108.33694267 78.70907402 C-112.66821174 78.72860695 -116.99943016 78.75274048 -121.33065414 78.78049088 C-122.92504396 78.7898791 -124.51944491 78.79754796 -126.11385155 78.80341911 C-128.28119297 78.81165036 -130.44841045 78.82591826 -132.6157074 78.84178162 C-134.43947482 78.85146044 -134.43947482 78.85146044 -136.30008602 78.8613348 C-138.91678472 78.69348224 -138.91678472 78.69348224 -140 80 C-140.04080783 81.99958364 -140.04254356 84.00045254 -140 86 C-137.13071474 87.43464263 -134.66573172 87.14128196 -131.45748901 87.15821838 C-130.4381212 87.16562535 -130.4381212 87.16562535 -129.3981601 87.17318195 C-127.11033193 87.18859739 -124.8225319 87.19692847 -122.53466797 87.20532227 C-120.89892324 87.21489762 -119.26318101 87.22490749 -117.62744141 87.23532104 C-113.17730445 87.26241338 -108.72715684 87.28339946 -104.27698278 87.30332303 C-99.62979524 87.32515594 -94.98264069 87.35255778 -90.33547974 87.37937927 C-81.5311549 87.42934268 -72.72681179 87.47426795 -63.92245114 87.51740164 C-53.90080825 87.56674287 -43.87919847 87.62167253 -33.85758758 87.67708123 C-13.23842254 87.79095727 7.38077408 87.89778404 28 88 C28.33 90.97 28.66 93.94 29 97 C-31.06 97 -91.12 97 -153 97 C-152.40316955 89.83803459 -151.86786487 83.56768497 -150.40234375 76.66796875 C-149.14660704 68.34109327 -151.19087121 64.02380757 -155.5 57.0625 C-156.02464844 56.18787109 -156.54929687 55.31324219 -157.08984375 54.41210938 C-158.37979873 52.26609336 -159.68320059 50.12961103 -161 48 C-158.5985645 45.34880728 -156.01485546 43.69052056 -152.9296875 41.8984375 C-151.95128906 41.32609375 -150.97289062 40.75375 -149.96484375 40.1640625 C-148.94519531 39.57367188 -147.92554688 38.98328125 -146.875 38.375 C-144.85083328 37.19656417 -142.82735698 36.01694135 -140.8046875 34.8359375 C-139.90733887 34.31563965 -139.00999023 33.7953418 -138.08544922 33.25927734 C-136.08533386 32.16526725 -136.08533386 32.16526725 -135 31 C-134.63583645 27.07855997 -135.27772496 24.95359718 -137.40625 21.6796875 C-137.90253906 20.89722656 -138.39882812 20.11476563 -138.91015625 19.30859375 C-139.43480469 18.50550781 -139.95945313 17.70242188 -140.5 16.875 C-141.53719589 15.2720609 -142.568727 13.66543792 -143.59375 12.0546875 C-144.05458984 11.34812012 -144.51542969 10.64155273 -144.99023438 9.91357422 C-146 8 -146 8 -146 5 C-143.23010036 4.32923511 -140.45920258 3.66323683 -137.6875 3 C-136.90181641 2.80921875 -136.11613281 2.6184375 -135.30664062 2.421875 C-134.54931641 2.24140625 -133.79199219 2.0609375 -133.01171875 1.875 C-132.31522217 1.70742188 -131.61872559 1.53984375 -130.90112305 1.3671875 C-129 1 -129 1 -126 1 C-125.92523438 1.7734375 -125.85046875 2.546875 -125.7734375 3.34375 C-124.28102291 15.1660146 -119.18844228 20.16714846 -110.4375 27.78515625 C-108.28521785 29.7408357 -106.42537535 31.71190132 -104.5625 33.9375 C-90.14016343 50.83032941 -66.08947357 68.02302634 -44 72.625 C-33.22807855 70.3808497 -25.01800151 61.65335683 -18.95703125 53.03125 C-14.34234795 45.8835569 -10.99278212 38.64250455 -8.78125 30.44140625 C-7.91290354 27.72782355 -6.74900137 25.34019015 -5.4375 22.8125 C-1.56927381 15.33160611 -0.57135404 8.31470491 0 0 Z " fill="#FBCE13" transform="translate(269,400)"/>
<path d="M0 0 C2.3515625 1.99609375 2.3515625 1.99609375 4.625 4.4375 C10.34958398 10.52353382 13.71787123 11.41624961 21.96850586 11.78491211 C34.33136159 12.6704148 34.33136159 12.6704148 45.375 8.28515625 C47.49033065 6.20318454 49.13747044 3.97072585 50.80859375 1.52734375 C51.53175781 0.69332031 52.25492187 -0.14070313 53 -1 C57.82491722 -1.10108067 62.39149959 1.17121544 66.8125 3 C67.49248047 3.27328125 68.17246094 3.5465625 68.87304688 3.828125 C73.85446429 5.85446429 73.85446429 5.85446429 75 7 C75.09611476 8.35678282 75.13196159 9.71796964 75.140625 11.078125 C75.15996094 11.90957031 75.17929687 12.74101562 75.19921875 13.59765625 C75.23276943 15.35003407 75.25127852 17.10277175 75.25390625 18.85546875 C75.37964961 23.15059723 75.45899713 25.3206234 78.19921875 28.76171875 C79.12347656 29.50035156 80.04773438 30.23898437 81 31 C92 42 92 42 93.73046875 44.29296875 C97.3836139 47.04068722 101.29673974 46.67764274 105.75 46.75 C107.08224609 46.79447266 107.08224609 46.79447266 108.44140625 46.83984375 C110.62769449 46.91036918 112.81292768 46.96314637 115 47 C123.81488315 64.31619338 123.81488315 64.31619338 123 69 C121.60416484 70.11334471 120.19733128 71.21672912 118.72924805 72.23291016 C114.25132887 75.51406229 111.50415807 78.71627781 110.28662109 84.23144531 C109.86822576 88.05166542 109.71630537 91.78236308 109.6875 95.625 C109.65849609 96.87603516 109.62949219 98.12707031 109.59960938 99.41601562 C109.82639923 107.80724008 111.74773376 112.18000006 117.78442383 118.02490234 C119.12127072 119.21664795 120.45829373 120.40819609 121.7956543 121.59936523 C123 123 123 123 122.875 125.69921875 C121.85536757 129.54560001 120.51915617 133.14001161 119 136.8125 C118.72671875 137.49248047 118.4534375 138.17246094 118.171875 138.87304688 C116.14553571 143.85446429 116.14553571 143.85446429 115 145 C113.66023906 144.98705273 112.32093355 144.91769744 110.984375 144.82421875 C100.22878082 144.25664496 100.22878082 144.25664496 90.9921875 149.00390625 C88.19745426 151.91735727 85.75517287 155.0649227 83.38818359 158.33129883 C81.95696155 160.05173546 80.55307714 161.06989914 78.703125 162.30859375 C75.24748603 165.74925163 75.25472763 167.82088631 75.1171875 172.54882812 C75.11976563 173.46083984 75.12234375 174.37285156 75.125 175.3125 C75.104375 176.24384766 75.08375 177.17519531 75.0625 178.13476562 C75.01553982 180.4240742 74.99554473 182.71030978 75 185 C73.68 185.33 72.36 185.66 71 186 C70.85304688 185.16597656 70.70609375 184.33195313 70.5546875 183.47265625 C68.35993672 172.46106182 64.85814383 165.43568366 55.5390625 158.99609375 C54.77722656 158.50302734 54.77722656 158.50302734 54 158 C56.297221 156.25728062 58.59866729 154.60088848 61 153 C62.25683594 153.22300781 63.51367188 153.44601562 64.80859375 153.67578125 C68.40658508 154.22596552 68.83184922 154.10413293 72.16015625 152.04296875 C73.15255835 151.11719318 74.11951334 150.16356275 75.0625 149.1875 C75.57635254 148.6826709 76.09020508 148.1778418 76.61962891 147.65771484 C90.27386602 133.9001344 97.96468899 115.07469525 98.375 95.6875 C97.59477101 77.41504052 92.01293246 61.00067325 79.3203125 47.59375 C78 46 78 46 78 44 C77.4225 43.73703125 76.845 43.4740625 76.25 43.203125 C73.88154056 41.9366571 72.0534706 40.4767821 70 38.75 C54.85640364 26.84792508 35.94065775 22.54020334 17 24 C-2.89405596 26.66229951 -19.63409158 37.38240357 -32 53 C-43.41998328 69.3287957 -47.06322614 89.0443845 -44.53125 108.625 C-40.8417157 128.30251628 -31.17349229 143.44063924 -15 155 C-12.37229652 156.76425589 -9.73376975 158.4010026 -7 160 C-8.13340078 162.3871627 -9.16788523 164.20146227 -10.875 166.25 C-15.55232326 172.30300658 -17.68363931 178.5175287 -19 186 C-20.32 185.67 -21.64 185.34 -23 185 C-22.9779248 184.410979 -22.95584961 183.82195801 -22.93310547 183.21508789 C-22.27427511 171.52997664 -22.27427511 171.52997664 -26.046875 160.8828125 C-28.5942282 158.71370266 -31.23163681 156.87415738 -34 155 C-35.98162147 152.91389304 -37.79460052 150.74884937 -39.625 148.53125 C-41.36529682 146.59319218 -42.4725556 146.05249476 -45.06298828 145.79467773 C-46.30411377 145.73969116 -46.30411377 145.73969116 -47.5703125 145.68359375 C-48.46621094 145.64169922 -49.36210937 145.59980469 -50.28515625 145.55664062 C-51.22230469 145.51732422 -52.15945313 145.47800781 -53.125 145.4375 C-54.54232422 145.37272461 -54.54232422 145.37272461 -55.98828125 145.30664062 C-58.32537092 145.20040928 -60.6625683 145.09836824 -63 145 C-64.37283042 141.92464542 -65.71989793 138.83865719 -67.0625 135.75 C-67.45244141 134.87730469 -67.84238281 134.00460937 -68.24414062 133.10546875 C-68.79038086 131.83896484 -68.79038086 131.83896484 -69.34765625 130.546875 C-69.68804932 129.77182617 -70.02844238 128.99677734 -70.37915039 128.19824219 C-71.09663845 125.65783225 -71.00588567 124.42573072 -70 122 C-68.17016146 120.68263206 -66.33617986 119.37101477 -64.5 118.0625 C-58.86368918 113.2020193 -57.98260773 107.67121554 -57.31176758 100.46630859 C-56.38638736 87.34563937 -56.38638736 87.34563937 -61.79052734 75.88842773 C-64.04870316 73.73566244 -66.51485727 71.88134509 -69 70 C-70.26196289 68.15942383 -70.26196289 68.15942383 -71 66 C-70.49267578 63.80175781 -70.49267578 63.80175781 -69.4453125 61.453125 C-69.07792969 60.60878906 -68.71054687 59.76445312 -68.33203125 58.89453125 C-67.93371094 58.02183594 -67.53539062 57.14914062 -67.125 56.25 C-66.73441406 55.36183594 -66.34382813 54.47367187 -65.94140625 53.55859375 C-64.9747015 51.36582443 -63.993965 49.18051467 -63 47 C-61.06060547 47.13535156 -61.06060547 47.13535156 -59.08203125 47.2734375 C-48.26924101 47.78071694 -48.26924101 47.78071694 -38.98828125 42.9921875 C-36.19494788 40.08008003 -33.75403885 36.93351238 -31.38818359 33.66870117 C-29.95696155 31.94826454 -28.55307714 30.93010086 -26.703125 29.69140625 C-23.24748603 26.25074837 -23.25472763 24.17911369 -23.1171875 19.45117188 C-23.11976563 18.53916016 -23.12234375 17.62714844 -23.125 16.6875 C-23.104375 15.75615234 -23.08375 14.82480469 -23.0625 13.86523438 C-23.01553982 11.5759258 -22.99554473 9.28969022 -23 7 C-20.93824636 6.040062 -18.87556531 5.08211576 -16.8125 4.125 C-15.66394531 3.59132813 -14.51539063 3.05765625 -13.33203125 2.5078125 C-12.23246094 2.01023437 -11.13289063 1.51265625 -10 1 C-8.70642578 0.37738281 -8.70642578 0.37738281 -7.38671875 -0.2578125 C-4.39792974 -1.18722316 -2.93996716 -1.07118677 0 0 Z " fill="#E1E1E2" transform="translate(356,286)"/>
<path d="M0 0 C1.69647719 0.00056542 3.39295486 0.000245 5.08943176 -0.00088501 C9.6546759 -0.0014544 14.21981305 0.0102323 18.78503251 0.02426291 C23.57093135 0.03683983 28.35683315 0.03794622 33.14274597 0.04031372 C42.18757451 0.04650816 51.23235419 0.06289118 60.2771613 0.0830127 C70.58197568 0.10543539 80.8867925 0.11638109 91.19162524 0.12640357 C112.37281314 0.14725939 133.55395719 0.18239541 154.73510742 0.22705078 C154.97985546 11.21095882 149.42232839 20.27406112 142.27416992 28.23876953 C136.21245221 32.98556078 129.94985073 33.66673396 122.53491211 33.58781433 C121.64194585 33.59037761 120.74897959 33.59294088 119.82895374 33.59558183 C116.85477608 33.60049956 113.88111285 33.58406005 110.90698242 33.56762695 C108.76789868 33.56678025 106.62881407 33.56725667 104.48973083 33.56895447 C98.69485812 33.56981414 92.90017222 33.55219273 87.10534286 33.5312326 C81.04484762 33.51246124 74.98434795 33.51071499 68.92382812 33.50715637 C57.4528215 33.49783728 45.98190079 33.47322525 34.51093197 33.4431079 C21.44933836 33.40955975 8.38774063 33.39307682 -4.67388535 33.3780216 C-31.53760203 33.34667564 -58.40124249 33.29391769 -85.26489258 33.22705078 C-61.91835693 9.60073956 -32.77365256 -0.15470223 0 0 Z " fill="#F8D944" transform="translate(219.264892578125,139.77294921875)"/>
<path d="M0 0 C13.35090004 -0.98525065 22.39620263 1.09418748 33.68725586 8.20336914 C34.53416992 8.69192383 35.38108398 9.18047852 36.25366211 9.68383789 C59.39659852 23.8014431 74.43898416 49.83063212 80.80053711 75.60961914 C83.93966012 88.91231915 85.68725586 101.40536093 85.68725586 115.20336914 C66.87725586 115.20336914 48.06725586 115.20336914 28.68725586 115.20336914 C27.69725586 105.30336914 27.69725586 105.30336914 26.68725586 95.20336914 C26.14890417 91.71231126 25.60706112 88.33011567 24.87475586 84.89086914 C24.61710449 83.65771973 24.61710449 83.65771973 24.35424805 82.3996582 C18.9647693 57.5926299 6.6902502 32.49714756 -14.31274414 17.20336914 C-20.80476563 13.19337194 -27.46554941 9.57493615 -34.31274414 6.20336914 C-34.31274414 5.87336914 -34.31274414 5.54336914 -34.31274414 5.20336914 C-30.6677319 4.55284544 -27.02159914 3.90882008 -23.37524414 3.26586914 C-22.35366211 3.0834668 -21.33208008 2.90106445 -20.27954102 2.71313477 C-13.52758373 1.5266886 -6.82676407 0.60030555 0 0 Z " fill="#FDEC92" transform="translate(188.312744140625,14.796630859375)"/>
<path d="M0 0 C6.88875225 4.01380927 12.05486547 12.22380841 14.5234375 19.71875 C16.59446061 29.63249998 14.96190708 38.25401227 10 47 C4.77317948 54.63724745 -2.08132771 59.55005147 -11 62 C-19.86074545 62.78966229 -28.28371063 62.94832184 -36 58 C-37.04220703 57.38125 -37.04220703 57.38125 -38.10546875 56.75 C-45.48271208 51.87797438 -49.68519892 44.42418474 -52 36 C-53.0080053 24.83339581 -51.85268482 15.67632503 -44.7265625 6.84765625 C-32.01952822 -6.75059537 -16.39707291 -8.22131017 0 0 Z " fill="#031B41" transform="translate(401,353)"/>
<path d="M0 0 C1.35882416 -0.00256327 1.35882416 -0.00256327 2.74509931 -0.00517833 C5.78687222 -0.00847805 8.82842556 0.00253847 11.87017822 0.01345825 C14.04808039 0.01402226 16.22598294 0.01370601 18.40388489 0.01257324 C24.32291391 0.01199833 30.24186223 0.0237751 36.16087246 0.03772116 C42.34418265 0.05020541 48.52749459 0.05139719 54.71081543 0.05377197 C66.42276049 0.05999352 78.13466831 0.07641348 89.84659696 0.09647095 C103.17895839 0.11896917 116.51131997 0.1298181 129.84369612 0.13986182 C157.2721405 0.16077911 184.70055181 0.19596821 212.12896729 0.24050903 C212.12896729 4.20050903 212.12896729 8.16050903 212.12896729 12.24050903 C210.98927994 12.23828842 209.84959259 12.23606781 208.67536926 12.23377991 C180.89684122 12.18149072 153.11859214 12.17536428 125.34004211 12.21716309 C122.66161112 12.22103493 119.98317995 12.22473601 117.30474854 12.228302 C116.30619742 12.2296402 116.30619742 12.2296402 115.28747356 12.23100543 C105.20461724 12.24374328 95.12195579 12.23314294 85.03912354 12.20974731 C73.32520114 12.18281777 61.6116731 12.18410973 49.89776516 12.21876812 C43.69977497 12.23613466 37.50249078 12.2397237 31.30453491 12.20947266 C25.46012303 12.18139422 19.61695789 12.19130261 13.77261353 12.22924614 C11.63786062 12.23661074 9.50300859 12.23058075 7.36834717 12.20948982 C-5.56466939 12.09094595 -14.9925009 13.41650236 -26.11445236 20.21697426 C-29.14666989 21.98380495 -32.32915832 23.38004352 -35.52337646 24.83035278 C-36.74301862 25.39167814 -37.96241955 25.95352793 -39.18157959 26.51589966 C-40.37847412 27.06439575 -41.57536865 27.61289185 -42.80853271 28.17800903 C-45.27717861 29.30956411 -47.74436934 30.44412677 -50.21087646 31.58035278 C-51.27685059 32.0688269 -52.34282471 32.55730103 -53.44110107 33.06057739 C-55.76471326 34.02511907 -55.76471326 34.02511907 -56.87103271 35.24050903 C-58.49320199 35.48892241 -60.11900866 35.71368433 -61.74603271 35.92800903 C-69.45277041 37.27092562 -76.21534293 40.71651544 -82.05853271 45.92800903 C-85.53763027 48.78860036 -88.60997967 49.84464683 -92.87103271 51.24050903 C-95.87103271 44.61550903 -95.87103271 44.61550903 -95.87103271 41.24050903 C-95.16422363 40.91477905 -94.45741455 40.58904907 -93.72918701 40.25344849 C-79.45195605 33.66687368 -65.22380504 26.99739594 -51.07269287 20.14285278 C-39.26911448 14.43920312 -27.37414938 8.93796631 -15.46697998 3.45462036 C-12.97890114 2.36755106 -12.97890114 2.36755106 -11.26322556 1.17965889 C-7.58887374 -0.26285315 -3.89065647 -0.02672064 0 0 Z " fill="#F6E690" transform="translate(127.87103271484375,182.75949096679688)"/>
<path d="M0 0 C10.01155796 2.07583059 18.95275325 6.37498821 28 11 C28.93972656 11.47566406 29.87945312 11.95132813 30.84765625 12.44140625 C34.98580193 15.4379945 36.20589271 20.37061495 38 25 C38.54333984 26.38251953 38.54333984 26.38251953 39.09765625 27.79296875 C42.66602533 37.62972761 44.3825584 48.00639501 45.45703125 58.390625 C45.63997066 62.03600436 45.63997066 62.03600436 48 64 C51.30683466 63.71016731 51.30683466 63.71016731 54 62 C55.06602603 51.51449806 52.66842986 42.02000769 50 32 C49.66421355 30.66728235 49.32925432 29.33434646 49 28 C64.90912869 40.02023057 75.55207647 59.64122622 81.49316406 78.33886719 C82.2748331 80.7780419 82.2748331 80.7780419 84 84 C85.98 84.66 87.96 85.32 90 86 C90.99 90.29 91.98 94.58 93 99 C74.19 99 55.38 99 36 99 C35.01 90.09 34.02 81.18 33 72 C28.74210099 45.84433462 18.3961422 23.27380992 1.46875 2.86328125 C0 1 0 1 0 0 Z " fill="#FCCF13" transform="translate(248,31)"/>
<path d="M0 0 C0.34144043 0.63276855 0.68288086 1.26553711 1.03466797 1.91748047 C7.58700329 14.05411766 14.16188428 26.17623443 20.87890625 38.22265625 C21.22840332 38.86090332 21.57790039 39.49915039 21.93798828 40.15673828 C22.97318565 42.01251701 22.97318565 42.01251701 24.19873047 43.72998047 C30.09024713 52.52565938 24.50864827 66.94811036 23 76 C3.53 76 -15.94 76 -36 76 C-20 0 -20 0 0 0 Z " fill="#32A4F9" transform="translate(83,421)"/>
<path d="M0 0 C0.74798355 -0.00524185 1.4959671 -0.0104837 2.26661682 -0.0158844 C3.83894619 -0.02226977 5.41132355 -0.02101307 6.98364258 -0.01245117 C9.36953014 -0.0039397 11.75302 -0.03274929 14.13867188 -0.06445312 C23.23228495 -0.10793531 30.07936849 0.09672383 37.18359375 6.43359375 C37.72242188 7.09359375 38.26125 7.75359375 38.81640625 8.43359375 C39.37070312 9.09359375 39.925 9.75359375 40.49609375 10.43359375 C43.6089771 14.74115126 44.1967925 17.73620908 44.20703125 23.09765625 C44.21089844 25.02738281 44.21089844 25.02738281 44.21484375 26.99609375 C44.2106543 27.66253906 44.20646484 28.32898438 44.20214844 29.015625 C44.19140468 31.05889327 44.20207963 33.10128953 44.21484375 35.14453125 C44.21226562 36.4284375 44.2096875 37.71234375 44.20703125 39.03515625 C44.20477539 40.21416504 44.20251953 41.39317383 44.20019531 42.60791016 C43.94140625 45.43359375 43.94140625 45.43359375 41.94140625 47.43359375 C39.25343323 47.69429016 39.25343323 47.69429016 35.79516602 47.70825195 C34.50365128 47.71778397 33.21213654 47.72731598 31.88148499 47.73713684 C30.46526055 47.73687542 29.0490361 47.73593841 27.6328125 47.734375 C26.18554053 47.73826057 24.7382697 47.74259495 23.29100037 47.74736023 C20.25540473 47.75482848 17.21992537 47.75452695 14.18432617 47.74926758 C10.29237218 47.74347356 6.40089418 47.76039885 2.5090189 47.78361225 C-0.4806853 47.7983381 -3.47027458 47.79922287 -6.46000862 47.79610252 C-7.89494837 47.79661637 -9.32989446 47.80186599 -10.76479912 47.81191444 C-12.77081556 47.82423716 -14.77692791 47.81555945 -16.78295898 47.8059082 C-17.92498276 47.80653763 -19.06700653 47.80716705 -20.24363708 47.80781555 C-23.05859375 47.43359375 -23.05859375 47.43359375 -24.92457581 46.07759094 C-27.66927497 42.09857303 -26.56838917 35.95162151 -26.55859375 31.30859375 C-26.58695312 30.10976563 -26.6153125 28.9109375 -26.64453125 27.67578125 C-26.66290874 19.29564722 -25.39287005 13.18430936 -19.65087891 6.890625 C-13.80853891 1.58683016 -7.67720706 -0.03199728 0 0 Z " fill="#F7CEB3" transform="translate(373.05859375,449.56640625)"/>
<path d="M0 0 C3.62676539 2.72887687 4.94985119 5.57224704 5.984375 9.8984375 C6.479375 11.3834375 6.479375 11.3834375 6.984375 12.8984375 C6.46414631 15.63754213 5.87384779 18.26964522 5.171875 20.9609375 C4.99333984 21.69376953 4.81480469 22.42660156 4.63085938 23.18164062 C3.24234144 28.64047106 3.24234144 28.64047106 0.984375 30.8984375 C0.6440625 30.25777344 0.30375 29.61710937 -0.046875 28.95703125 C-5.34950849 19.49408692 -10.95935918 13.9404802 -21.38671875 10.546875 C-24.80274674 9.7042886 -27.52235827 9.51873459 -31.015625 9.8984375 C-32.37180999 11.02377855 -32.37180999 11.02377855 -32.078125 13.9609375 C-32.0575 14.9303125 -32.036875 15.8996875 -32.015625 16.8984375 C-30.76845703 17.27935547 -30.76845703 17.27935547 -29.49609375 17.66796875 C-28.40941406 18.01214844 -27.32273437 18.35632813 -26.203125 18.7109375 C-24.58470703 19.21560547 -24.58470703 19.21560547 -22.93359375 19.73046875 C-20.015625 20.8984375 -20.015625 20.8984375 -17.015625 23.8984375 C-20.645625 25.2184375 -24.275625 26.5384375 -28.015625 27.8984375 C-28.69363534 30.79916931 -28.69363534 30.79916931 -29.015625 33.8984375 C-28.355625 34.5584375 -27.695625 35.2184375 -27.015625 35.8984375 C-22.45639517 35.56483532 -18.33405809 34.06001352 -14.06640625 32.51953125 C-12.015625 31.8984375 -12.015625 31.8984375 -9.015625 31.8984375 C-8.76167969 32.53652344 -8.50773437 33.17460937 -8.24609375 33.83203125 C-7.90191406 34.65832031 -7.55773437 35.48460937 -7.203125 36.3359375 C-6.86667969 37.15964844 -6.53023437 37.98335938 -6.18359375 38.83203125 C-5.13159412 41.23216238 -5.13159412 41.23216238 -2.015625 41.8984375 C-3.08705357 51.00558036 -3.08705357 51.00558036 -5.015625 53.8984375 C-11.7862646 57.91245955 -20.44105701 57.82593562 -28.015625 56.8984375 C-31.69100459 55.6700613 -34.78307762 54.01844467 -38.015625 51.8984375 C-38.923125 51.3415625 -39.830625 50.7846875 -40.765625 50.2109375 C-47.24369496 43.55292116 -50.93015302 35.33854641 -51.390625 26.0859375 C-51.14495266 17.07795155 -47.34676974 10.32992681 -41.23828125 3.87890625 C-30.07336889 -6.06944272 -13.13666774 -7.17934167 0 0 Z " fill="#F4CCB1" transform="translate(94.015625,231.1015625)"/>
<path d="M0 0 C12.60639274 5.12125074 25.09874082 10.4793012 37.5625 15.9375 C39.36386064 16.72477334 41.16529259 17.51188354 42.96679688 18.29882812 C47.31201846 20.19734778 51.65628247 22.09804182 56 24 C54.78624742 27.22246943 53.45508353 30.07827237 51.57421875 32.9609375 C51.10693359 33.68023437 50.63964844 34.39953125 50.15820312 35.140625 C49.67287109 35.87796875 49.18753906 36.6153125 48.6875 37.375 C48.21376953 38.10460937 47.74003906 38.83421875 47.25195312 39.5859375 C44.27842083 44.1418283 41.19117771 48.59396592 38 53 C2.8598858 40.80947418 2.8598858 40.80947418 -6.80078125 27.5234375 C-9.15442102 22.57082744 -8.70749471 17.50344284 -7.23828125 12.3046875 C-5.42265638 7.49651097 -3.25538521 3.99061901 0 0 Z " fill="#396FBD" transform="translate(161,383)"/>
<path d="M0 0 C5.53819374 3.37346325 10.07256671 8.76384948 11.71875 15.07421875 C11.80125 16.10546875 11.88375 17.13671875 11.96875 18.19921875 C12.0925 19.43671875 12.21625 20.67421875 12.34375 21.94921875 C12.23795641 28.0852472 9.29975606 33.56463981 5.2890625 38.09765625 C-0.9129881 43.74841347 -7.46974139 44.78710019 -15.703125 44.63671875 C-21.93908113 43.81696865 -26.75156377 40.99486168 -30.72265625 36.125 C-35.31490507 29.04691849 -35.72207004 22.52853469 -35.03125 14.19921875 C-33.34726787 7.90964696 -29.31814546 3.7947557 -24.03125 0.19921875 C-16.02622777 -4.33192591 -8.10703475 -4.06779032 0 0 Z " fill="#183D58" transform="translate(394.03125,360.80078125)"/>
<path d="M0 0 C0.33 0.99 0.66 1.98 1 3 C3.64 3 6.28 3 9 3 C9.33 2.34 9.66 1.68 10 1 C10.12375 1.804375 10.2475 2.60875 10.375 3.4375 C10.58125 4.283125 10.7875 5.12875 11 6 C13.86928526 7.43464263 16.33426828 7.14128196 19.54251099 7.15821838 C20.5618788 7.16562535 20.5618788 7.16562535 21.6018399 7.17318195 C23.88966807 7.18859739 26.1774681 7.19692847 28.46533203 7.20532227 C30.10107676 7.21489762 31.73681899 7.22490749 33.37255859 7.23532104 C37.82269555 7.26241338 42.27284316 7.28339946 46.72301722 7.30332303 C51.37020476 7.32515594 56.01735931 7.35255778 60.66452026 7.37937927 C69.4688451 7.42934268 78.27318821 7.47426795 87.07754886 7.51740164 C97.09919175 7.56674287 107.12080153 7.62167253 117.14241242 7.67708123 C137.76157746 7.79095727 158.38077408 7.89778404 179 8 C179.33 10.97 179.66 13.94 180 17 C119.94 17 59.88 17 -2 17 C-1 5 -1 5 0 0 Z " fill="#FEA300" transform="translate(118,480)"/>
<path d="M0 0 C1.66925104 11.70161837 1.66925104 11.70161837 -2.0625 16.83984375 C-4.93028454 19.4184057 -7.88948396 21.72100805 -11 24 C-12.94407708 25.5961896 -14.88185331 27.20009177 -16.8125 28.8125 C-17.72 29.53824219 -18.6275 30.26398438 -19.5625 31.01171875 C-21.56975364 32.64904584 -23.43274716 34.34804615 -25.3125 36.125 C-28 38 -28 38 -30.66650391 37.82836914 C-34.6863789 36.8294358 -38.25933087 35.32662396 -42.0234375 33.62109375 C-42.76961334 33.28956802 -43.51578918 32.9580423 -44.28457642 32.61647034 C-46.65100334 31.56328987 -49.01300086 30.50056809 -51.375 29.4375 C-52.98539344 28.71876518 -54.5960678 28.00065942 -56.20703125 27.28320312 C-60.14130953 25.52939968 -64.07164575 23.76703042 -68 22 C-65.88389827 19.88389827 -64.81599861 19.44882693 -62.03198242 18.55126953 C-61.21320114 18.28404083 -60.39441986 18.01681213 -59.55082703 17.7414856 C-58.6613588 17.45812347 -57.77189056 17.17476135 -56.85546875 16.8828125 C-55.93470047 16.58438446 -55.01393219 16.28595642 -54.06526184 15.97848511 C-51.10781758 15.0216112 -48.14769636 14.07332134 -45.1875 13.125 C-43.23485214 12.49402749 -41.28237611 11.86252297 -39.33007812 11.23046875 C-30.45597695 8.36295543 -21.57522448 5.52351773 -12.6496582 2.81982422 C-10.72097914 2.22307638 -8.80818985 1.57422585 -6.90698242 0.89501953 C-4 0 -4 0 0 0 Z " fill="#F3CCB1" transform="translate(253,361)"/>
<path d="M0 0 C5.18349635 2.56499421 9.14035223 4.76942024 12 10 C12.75197182 14.53599815 12.78023338 19.08447804 12.69995117 23.6730957 C12.69068604 24.57116943 12.6814209 25.46924316 12.671875 26.39453125 C12.6419043 27.20768799 12.61193359 28.02084473 12.58105469 28.85864258 C12.8130418 31.16980414 12.8130418 31.16980414 14.87304688 32.71484375 C17.11268735 34.06808841 19.34336251 35.16113989 21.75 36.1875 C23.1525 36.785625 24.555 37.38375 26 38 C26.495 44.93 26.495 44.93 27 52 C17.1 52 7.2 52 -3 52 C-6.37079912 32.47745511 -6.36802574 18.84156553 0 0 Z " fill="#32A4F8" transform="translate(311,445)"/>
<path d="M0 0 C0.66 0 1.32 0 2 0 C2.33209473 0.80743652 2.66418945 1.61487305 3.00634766 2.44677734 C4.25268926 5.4474215 5.51827337 8.43896621 6.79736328 11.42578125 C7.34620214 12.71838582 7.88732122 14.01429726 8.42041016 15.31347656 C9.18941204 17.18371206 9.98891816 19.04131236 10.7890625 20.8984375 C11.49603271 22.57945557 11.49603271 22.57945557 12.21728516 24.29443359 C14.43087469 27.65392404 16.14588303 28.14823544 20 29 C16.68638218 35.62723564 9.8119919 43.0805749 3 46 C-0.48566128 45.32535588 -2.82036757 44.48146991 -6 43 C-6.5863623 42.73074707 -7.17272461 42.46149414 -7.77685547 42.18408203 C-17.07675161 37.87037359 -25.63912071 32.95395949 -34 27 C-33.34 26.67 -32.68 26.34 -32 26 C-30.3018791 26.73692039 -28.60417142 27.47925792 -26.94921875 28.30859375 C-24.43978593 29.19871321 -22.64465678 29.33895127 -20 29 C-13.68460529 23.67554544 -9.52162448 14.58770608 -5.234375 7.57421875 C-1.86572646 2.13461056 -1.86572646 2.13461056 0 0 Z " fill="#31A3F7" transform="translate(223,417)"/>
<path d="M0 0 C-7.84060426 7.24661909 -15.71631557 12.29912436 -25.37255859 16.77001953 C-28.42671534 18.19975766 -31.45743692 19.67382983 -34.48828125 21.15234375 C-48.03456896 27.75381592 -61.64789286 34.1922065 -75.33447266 40.49755859 C-82.48299368 43.79995946 -89.57234295 47.18967865 -96.56176758 50.81787109 C-100.80080163 53 -100.80080163 53 -103 53 C-101.23237834 48.30900406 -98.88812337 44.08085961 -96.4375 39.71875 C-94.9329418 37.08688105 -94.9329418 37.08688105 -94.21484375 34.37109375 C-92.43260301 30.89257243 -90.0768507 30.1335754 -86.5625 28.5625 C-85.40878906 28.02753906 -84.25507812 27.49257812 -83.06640625 26.94140625 C-82.05449219 26.63074219 -81.04257813 26.32007813 -80 26 C-79.01 26.66 -78.02 27.32 -77 28 C-72.01620771 27.67411759 -67.7146325 25.80111234 -63.19140625 23.82421875 C-62.43957565 23.50253723 -61.68774506 23.18085571 -60.91313171 22.84942627 C-59.29871343 22.15863889 -57.68540655 21.4652493 -56.07312012 20.76950073 C-51.82322074 18.93792366 -47.56250843 17.13197723 -43.30078125 15.328125 C-42.43971771 14.96359726 -41.57865417 14.59906952 -40.6914978 14.22349548 C-32.93026872 10.94922839 -25.12806601 7.78780158 -17.2795105 4.72891235 C-15.92904565 4.20229544 -14.57969044 3.67282385 -13.23147583 3.14047241 C-11.37106425 2.40707909 -9.50596148 1.6856189 -7.640625 0.96484375 C-6.59422852 0.5587085 -5.54783203 0.15257324 -4.46972656 -0.26586914 C-2 -1 -2 -1 0 0 Z " fill="#F69F02" transform="translate(130,163)"/>
<path d="M0 0 C18.19163456 2.59880494 33.94790828 14.87449051 45 29 C60.38931959 50.80393318 67.79476587 77.41949699 67 104 C64.69 104 62.38 104 60 104 C59.91363281 102.87207031 59.82726562 101.74414062 59.73828125 100.58203125 C58.15656955 82.08097832 54.45329732 64.61891699 46 48 C45.70254883 47.4013916 45.40509766 46.8027832 45.09863281 46.18603516 C35.47866991 27.10730874 20.6417666 13.7969715 2.640625 2.71484375 C1.76921875 2.14894531 0.8978125 1.58304688 0 1 C0 0.67 0 0.34 0 0 Z " fill="#F49E02" transform="translate(140,27)"/>
<path d="M0 0 C2.97853284 2.46052713 3.45057539 4.22524945 4 8 C4.88688714 22.35012477 3.25219749 31.46642383 -5.90234375 42.96875 C-8.18037542 45.17466521 -10.05852171 45.9159305 -13 47 C-14.8392812 42.87762652 -16.67041342 38.75168422 -18.5 34.625 C-19.02464844 33.449375 -19.54929688 32.27375 -20.08984375 31.0625 C-20.58613281 29.94101562 -21.08242187 28.81953125 -21.59375 27.6640625 C-22.05458984 26.62717285 -22.51542969 25.5902832 -22.99023438 24.52197266 C-24 22 -24 22 -24 20 C-22.44759659 18.60674046 -20.82970015 17.28619872 -19.1875 16 C-13.989944 11.85272733 -9.08359579 7.49522249 -4.21484375 2.96875 C-2 1 -2 1 0 0 Z " fill="#396EBC" transform="translate(255,386)"/>
<path d="M0 0 C7.02392482 3.38761631 10.51612656 7.51087249 13.82421875 14.51171875 C16.75954545 23.22017968 16.15351327 32.69721107 12.18359375 40.98046875 C9.1770044 46.11052385 6.26983612 48.09606943 0.6875 49.8125 C-0.87360665 50.2137933 -2.43590531 50.61051562 -4 51 C-3.37779839 39.28758796 -2.50162367 27.61755421 -1.4375 15.9375 C-1.29728828 14.37697447 -1.15731347 12.81642763 -1.01757812 11.25585938 C-0.68109728 7.5036567 -0.34147713 3.75175114 0 0 Z " fill="#E5A392" transform="translate(329,234)"/>
<path d="M0 0 C9.31908975 0.36735001 16.40300631 4.73357593 22.9609375 11.0625 C27.63723455 16.20816516 29.89148975 21.06880189 30.25 28 C30.0625 31.375 30.0625 31.375 28.0625 33.375 C25.625 33.75 25.625 33.75 23.0625 33.375 C19.91576625 30.45303295 19.67140419 27.49074126 19.0625 23.375 C18.10988281 23.74753906 17.15726563 24.12007813 16.17578125 24.50390625 C14.90910271 24.98242925 13.6421615 25.46025736 12.375 25.9375 C11.74916016 26.18435547 11.12332031 26.43121094 10.47851562 26.68554688 C6.63000948 28.1161434 3.97963201 28.77952121 0.0625 27.375 C-1.9375 25.375 -1.9375 25.375 -2.125 22.5 C-0.9375 19.375 -0.9375 19.375 1.0703125 18.12890625 C3.37608982 17.11688501 5.69221928 16.22308209 8.0625 15.375 C8.7225 15.045 9.3825 14.715 10.0625 14.375 C6.46723191 12.760798 2.99149997 11.28960248 -0.8125 10.25 C-3.9375 9.375 -3.9375 9.375 -4.9375 8.375 C-5.125 5.4375 -5.125 5.4375 -4.9375 2.375 C-2.9375 0.375 -2.9375 0.375 0 0 Z " fill="#071C41" transform="translate(65.9375,239.625)"/>
<path d="M0 0 C3.60387886 2.37766282 5.63934215 4.91802644 7 9 C7.95496283 21.72671622 7.95496283 21.72671622 4 27 C1.42586253 29.33468282 -0.47905451 30.82404748 -3.9921875 31.23046875 C-8.21409434 31.01539048 -9.73558538 30.25291833 -12.875 27.25 C-16.36992285 21.90482387 -17.97461966 17.46576947 -17 11 C-15.6853726 7.20519927 -13.89901139 4.06549498 -11.3125 1 C-7.53617635 -0.63300482 -4.02212039 -0.87679441 0 0 Z " fill="#081F44" transform="translate(214,220)"/>
<path d="M0 0 C1.4855957 1.56054688 1.4855957 1.56054688 2.67578125 3.71875 C3.11083984 4.48574219 3.54589844 5.25273437 3.99414062 6.04296875 C4.42919922 6.85378906 4.86425781 7.66460937 5.3125 8.5 C5.76689453 9.31082031 6.22128906 10.12164062 6.68945312 10.95703125 C7.81021245 12.96260056 8.9124702 14.97627642 10 17 C6.76865078 20.58768848 3.09815123 22.94918097 -1.0625 25.3125 C-1.99932617 25.8703418 -1.99932617 25.8703418 -2.95507812 26.43945312 C-4.5912651 27.37716113 -6.29341902 28.19751295 -8 29 C-11.60992154 27.79669282 -11.76379542 27.12106526 -13.4453125 23.8515625 C-14.10080078 22.59085937 -14.10080078 22.59085937 -14.76953125 21.3046875 C-15.21683594 20.42039062 -15.66414063 19.53609375 -16.125 18.625 C-16.58003906 17.7484375 -17.03507812 16.871875 -17.50390625 15.96875 C-20.82626488 9.52120536 -20.82626488 9.52120536 -22 6 C-20.10667466 5.18167278 -18.21022267 4.37057732 -16.3125 3.5625 C-15.25675781 3.11003906 -14.20101562 2.65757812 -13.11328125 2.19140625 C-8.75915938 0.52514882 -4.67308585 -0.47111743 0 0 Z " fill="#FAA101" transform="translate(113,409)"/>
<path d="M0 0 C7.65548074 1.95837879 11.0246733 6.69203189 14.984375 13.1328125 C16.95046567 16.74739457 17.11000127 19.64989244 17.0625 23.6875 C17.05347656 24.68136719 17.04445312 25.67523438 17.03515625 26.69921875 C17.02355469 27.45847656 17.01195312 28.21773438 17 29 C9.62143492 27.74115697 5.30951748 23.86573213 1 18 C-0.89608555 14.13565955 -1.2455546 11.03548467 -1.1875 6.75 C-1.18105469 5.69296875 -1.17460937 4.6359375 -1.16796875 3.546875 C-1 1 -1 1 0 0 Z " fill="#F35456" transform="translate(221,299)"/>
<path d="M0 0 C2.60453175 0.64438933 5.2086291 1.2904504 7.8125 1.9375 C8.55048828 2.11990234 9.28847656 2.30230469 10.04882812 2.49023438 C13.07060984 3.2422615 16.04456718 4.01485573 19 5 C18.64282346 10.83388346 17.23864927 14.84365459 13 19 C10.43305665 20.61622359 7.81430851 21.87567327 5 23 C4.83564453 21.48019531 4.83564453 21.48019531 4.66796875 19.9296875 C4.50840107 18.57805539 4.34821167 17.22649657 4.1875 15.875 C4.11724609 15.20984375 4.04699219 14.5446875 3.97460938 13.859375 C3.42071296 9.33958024 2.15640337 5.9819613 0 2 C0 1.34 0 0.68 0 0 Z " fill="#183C58" transform="translate(243,304)"/>
<path d="M0 0 C2.64 0 5.28 0 8 0 C8 7.59 8 15.18 8 23 C4.86615008 21.74646003 1.96854486 20.53924548 -1 19 C-1.12086218 12.56744599 -0.82351864 6.38226945 0 0 Z " fill="#674835" transform="translate(332,205)"/>
<path d="M0 0 C2.5625 0.375 2.5625 0.375 4.375 2 C5.86699169 4.98398338 5.8492649 7.07720369 5.5625 10.375 C5.2325 11.035 4.9025 11.695 4.5625 12.375 C1.75 12.625 1.75 12.625 -1.4375 12.375 C-4.07411642 10.08993243 -4.40244766 8.72552338 -4.75 5.25 C-4.3532212 1.59963506 -3.67539148 0.56544484 0 0 Z " fill="#FBFBFC" transform="translate(270.4375,224.625)"/>
<path d="M0 0 C2.625 0.25 2.625 0.25 4.4375 1.25 C6.38498613 4.52997665 5.86793242 7.48454745 5.625 11.25 C4.625 12.25 4.625 12.25 1.75 12.625 C-1.375 12.25 -1.375 12.25 -3.3125 10.125 C-4.5835537 6.68567823 -4.33035878 4.7529822 -3.375 1.25 C-2.375 0.25 -2.375 0.25 0 0 Z " fill="#FAFAFB" transform="translate(211.375,224.75)"/>
</svg>
